<svg width="21" height="22" viewBox="0 0 21 22" fill="none" xmlns="http://www.w3.org/2000/svg">
<path d="M15.3955 10.5551C16.7975 10.5551 17.9349 9.41859 17.9349 8.01654C17.9349 6.6145 16.7975 5.47795 15.3955 5.47795" stroke="#6B788E" stroke-width="1.2" stroke-linecap="round" stroke-linejoin="round"/>
<path d="M16.563 13.3139C16.9816 13.3428 17.3979 13.4021 17.8078 13.4944C18.3773 13.6059 19.0622 13.8393 19.3061 14.3502C19.4617 14.6774 19.4617 15.0584 19.3061 15.3865C19.0631 15.8974 18.3773 16.13 17.8078 16.2471" stroke="#6B788E" stroke-width="1.2" stroke-linecap="round" stroke-linejoin="round"/>
<path d="M5.50375 10.5551C4.10171 10.5551 2.96436 9.41859 2.96436 8.01654C2.96436 6.6145 4.10171 5.47795 5.50375 5.47795" stroke="#6B788E" stroke-width="1.2" stroke-linecap="round" stroke-linejoin="round"/>
<path d="M4.33631 13.3139C3.91762 13.3428 3.50134 13.4021 3.09148 13.4944C2.522 13.6059 1.83702 13.8393 1.59399 14.3502C1.43758 14.6774 1.43758 15.0584 1.59399 15.3865C1.83622 15.8974 2.522 16.13 3.09148 16.2471" stroke="#6B788E" stroke-width="1.2" stroke-linecap="round" stroke-linejoin="round"/>
<path fill-rule="evenodd" clip-rule="evenodd" d="M10.4455 13.8606C13.2865 13.8606 15.7136 14.2905 15.7136 16.011C15.7136 17.7306 13.3026 18.1766 10.4455 18.1766C7.60376 18.1766 5.17746 17.7467 5.17746 16.0262C5.17746 14.3058 7.58852 13.8606 10.4455 13.8606Z" stroke="#6B788E" stroke-width="1.2" stroke-linecap="round" stroke-linejoin="round"/>
<path fill-rule="evenodd" clip-rule="evenodd" d="M10.4455 11.4065C8.57188 11.4065 7.06958 9.90425 7.06958 8.02978C7.06958 6.15611 8.57188 4.65381 10.4455 4.65381C12.3192 4.65381 13.8215 6.15611 13.8215 8.02978C13.8215 9.90425 12.3192 11.4065 10.4455 11.4065Z" stroke="#6B788E" stroke-width="1.2" stroke-linecap="round" stroke-linejoin="round"/>
</svg>
