<svg width="16" height="17" viewBox="0 0 16 17" fill="none" xmlns="http://www.w3.org/2000/svg">
<path d="M5.33332 15.6564H10.6667C13.3467 15.6564 13.8267 14.5831 13.9667 13.2764L14.4667 7.94308C14.6467 6.31641 14.18 4.98975 11.3333 4.98975H4.66665C1.81999 4.98975 1.35332 6.31641 1.53332 7.94308L2.03332 13.2764C2.17332 14.5831 2.65332 15.6564 5.33332 15.6564Z" stroke="#FAFBFB" stroke-width="1.5" stroke-miterlimit="10" stroke-linecap="round" stroke-linejoin="round"/>
<path d="M5.33334 4.98976V4.45642C5.33334 3.27642 5.33334 2.32309 7.46668 2.32309H8.53334C10.6667 2.32309 10.6667 3.27642 10.6667 4.45642V4.98976" stroke="#FAFBFB" stroke-width="1.5" stroke-miterlimit="10" stroke-linecap="round" stroke-linejoin="round"/>
<path d="M9.33332 9.65641V10.3231C9.33332 10.3297 9.33332 10.3297 9.33332 10.3364C9.33332 11.0631 9.32666 11.6564 7.99999 11.6564C6.67999 11.6564 6.66666 11.0697 6.66666 10.3431V9.65641C6.66666 8.98975 6.66666 8.98975 7.33332 8.98975H8.66666C9.33332 8.98975 9.33332 8.98975 9.33332 9.65641Z" stroke="#FAFBFB" stroke-width="1.5" stroke-miterlimit="10" stroke-linecap="round" stroke-linejoin="round"/>
<path d="M14.4333 8.32309C12.8933 9.44309 11.1333 10.1098 9.33334 10.3364" stroke="#FAFBFB" stroke-width="1.5" stroke-miterlimit="10" stroke-linecap="round" stroke-linejoin="round"/>
<path d="M1.74667 8.50308C3.24667 9.52975 4.94001 10.1497 6.66667 10.3431" stroke="#FAFBFB" stroke-width="1.5" stroke-miterlimit="10" stroke-linecap="round" stroke-linejoin="round"/>
</svg>
