<svg width="20" height="20" viewBox="0 0 20 20" fill="none" xmlns="http://www.w3.org/2000/svg">
<path d="M9.99999 10.8333C10.4602 10.8333 10.8333 10.4602 10.8333 9.99999C10.8333 9.53976 10.4602 9.16666 9.99999 9.16666C9.53975 9.16666 9.16666 9.53976 9.16666 9.99999C9.16666 10.4602 9.53975 10.8333 9.99999 10.8333Z" stroke="#344054" stroke-width="1.66667" stroke-linecap="round" stroke-linejoin="round"/>
<path d="M9.99999 4.99999C10.4602 4.99999 10.8333 4.6269 10.8333 4.16666C10.8333 3.70642 10.4602 3.33333 9.99999 3.33333C9.53975 3.33333 9.16666 3.70642 9.16666 4.16666C9.16666 4.6269 9.53975 4.99999 9.99999 4.99999Z" stroke="#344054" stroke-width="1.66667" stroke-linecap="round" stroke-linejoin="round"/>
<path d="M9.99999 16.6667C10.4602 16.6667 10.8333 16.2936 10.8333 15.8333C10.8333 15.3731 10.4602 15 9.99999 15C9.53975 15 9.16666 15.3731 9.16666 15.8333C9.16666 16.2936 9.53975 16.6667 9.99999 16.6667Z" stroke="#344054" stroke-width="1.66667" stroke-linecap="round" stroke-linejoin="round"/>
</svg>
